<svg width="18" height="14" viewBox="0 0 18 14" fill="none" xmlns="http://www.w3.org/2000/svg">
<path d="M17.6748 2.00649L16.0955 0.427166C15.879 0.210449 15.6156 0.102051 15.306 0.102051C14.9962 0.102051 14.7328 0.210449 14.5162 0.427166L6.89806 8.05685L3.48385 4.631C3.26705 4.4142 3.00384 4.30593 2.69427 4.30593C2.38449 4.30593 2.12128 4.4142 1.90448 4.631L0.325155 6.21037C0.108358 6.42713 0 6.69041 0 7.00015C0 7.30965 0.108358 7.57318 0.325155 7.7899L4.52895 11.9936L6.1084 13.5729C6.32507 13.7898 6.58836 13.8981 6.89806 13.8981C7.20764 13.8981 7.47093 13.7895 7.68772 13.5729L9.26713 11.9936L17.6748 3.58594C17.8914 3.36914 18 3.10589 18 2.79615C18.0002 2.48658 17.8914 2.22329 17.6748 2.00649Z" fill="#72A479"/>
</svg>
