<svg width="40" height="60" viewBox="0 0 40 60" fill="none" xmlns="http://www.w3.org/2000/svg">
<path d="M37.6953 24.7266H23.1389L35.7077 2.62665C36.0172 2.08283 36.0135 1.41495 35.699 0.873872C35.3845 0.332795 34.8055 0 34.1797 0H13.0859C12.3288 0 11.6563 0.48523 11.4178 1.20392L0.870938 32.9613C0.692868 33.4974 0.783048 34.086 1.11355 34.5443C1.44406 35.002 1.97415 35.2735 2.53903 35.2735H17.4562L7.95347 57.5524C7.61518 58.3457 7.90174 59.2667 8.6305 59.7277C9.35926 60.1887 10.3146 60.0527 10.8864 59.4077L39.0114 27.6499C40.013 26.5183 39.2082 24.7266 37.6953 24.7266ZM15.4388 48.9647L21.734 34.2055C22.2275 33.0483 21.3779 31.7578 20.1172 31.7578H4.97479L14.3544 3.51563H31.1575L18.5892 25.6151C17.9245 26.7838 18.7691 28.2422 20.1172 28.2422H33.7906L15.4388 48.9647Z" fill="#79B282"/>
</svg>
