<svg width="19" height="19" viewBox="0 0 19 19" fill="none" xmlns="http://www.w3.org/2000/svg">
<path d="M11.1799 8.27967C10.8033 7.75231 10.1855 7.40576 9.49239 7.40576C8.79929 7.40576 8.18152 7.75231 7.80484 8.27967C7.56376 8.62622 7.41309 9.04811 7.41309 9.50013C7.41309 10.6453 8.34727 11.5794 9.49239 11.5794C10.6375 11.5794 11.5717 10.6453 11.5717 9.50013C11.5717 9.04811 11.421 8.62622 11.1799 8.27967Z" fill="white"/>
<path d="M12.4909 8.29468C12.6416 8.59603 12.732 9.07818 12.732 9.50007C12.732 11.278 11.2856 12.7396 9.49253 12.7396C7.69951 12.7396 6.25304 11.2931 6.25304 9.50007C6.25304 9.06312 6.34344 8.59603 6.49412 8.29468H4.67096V13.1313C4.67096 13.7641 5.22845 14.3216 5.86128 14.3216H13.1238C13.7566 14.3216 14.3141 13.7641 14.3141 13.1313V8.29468H12.4909Z" fill="white"/>
<path d="M13.7717 4.94964H12.0239V6.9536H14.0128V5.20578V4.93457L13.7717 4.94964Z" fill="white"/>
<path d="M14.2236 0.00878906H4.7613C2.13957 0.00878906 0 2.14836 0 4.77009V14.2475C0 16.8541 2.13957 18.9937 4.7613 18.9937H14.2387C16.8604 18.9937 19 16.8541 19 14.2324V4.77009C18.9849 2.14836 16.8454 0.00878906 14.2236 0.00878906ZM15.3688 8.28079V13.1325C15.3688 14.3982 14.3894 15.3775 13.1237 15.3775H5.86122C4.59556 15.3775 3.61618 14.3982 3.61618 13.1325V8.28079V5.87001C3.61618 4.60435 4.59556 3.62497 5.86122 3.62497H13.1237C14.3894 3.62497 15.3688 4.60435 15.3688 5.87001V8.28079Z" fill="white"/>
</svg>
