<svg width="20" height="19" viewBox="0 0 20 19" fill="none" xmlns="http://www.w3.org/2000/svg">
<path d="M11.2115 10.4714C10.9069 10.294 10.4836 10.294 10.1396 10.294H9.01009V12.6215H10.0468C10.4305 12.6215 10.92 12.6491 11.2509 12.4167C11.5547 12.2122 11.7267 11.8109 11.7267 11.4287C11.7267 11.0736 11.5153 10.6489 11.2115 10.4714ZM10.7854 8.4837C11.0368 8.29231 11.1686 7.9511 11.1686 7.63681C11.1686 7.29541 11.01 6.96766 10.7193 6.79032C10.4151 6.61299 9.85916 6.65396 9.50211 6.65396H9.01009V8.7024H9.66104C10.0313 8.7022 10.4681 8.72951 10.7854 8.4837ZM16.3477 0H4.02695C2.18276 0 0.6875 1.49526 0.6875 3.33984V15.6602C0.6875 17.5043 2.18276 19 4.02695 19H16.3477C18.1918 19 19.6875 17.5043 19.6875 15.6602V3.33984C19.6875 1.49526 18.1918 0 16.3477 0ZM10.7029 14.3559H6.82133V4.9877H11.0623C12.2908 4.9877 13.4242 5.76967 13.4242 7.14895C13.4242 8.21394 12.8297 8.94326 12.0713 9.16988V9.19739C13.1958 9.42974 13.999 10.0405 13.999 11.514C13.999 12.8776 13.0704 14.3559 10.7029 14.3559Z" fill="white"/>
</svg>
