<svg width="20" height="19" viewBox="0 0 20 19" fill="none" xmlns="http://www.w3.org/2000/svg">
<path d="M15.8125 0H3.93748C1.96982 0 0.375 1.59482 0.375 3.56248V15.4375C0.375 17.4052 1.96982 19 3.93748 19H15.8125C17.7802 19 19.375 17.4051 19.375 15.4375V3.56248C19.375 1.59482 17.7802 0 15.8125 0ZM15.7116 11.6268C15.6474 12.4177 15.0466 13.427 14.207 13.5731C11.5173 13.7821 8.33006 13.756 5.54422 13.5731C4.67496 13.4638 4.10379 12.4165 4.03967 11.6268C3.9043 9.96667 3.9043 9.02141 4.03967 7.36129C4.10379 6.57161 4.68923 5.53015 5.54422 5.43517C8.29804 5.20359 11.5031 5.25347 14.207 5.43517C15.1736 5.47078 15.6474 6.46711 15.7116 7.25798C15.8445 8.9181 15.8445 9.96667 15.7116 11.6268Z" fill="white"/>
<path d="M8.6875 11.875L12.25 9.5L8.6875 7.125V11.875Z" fill="white"/>
</svg>
